{"title":"Muppets Most Wanted 2014 CAM-XViD FiNGERBLaST [P2PDL]","uid":9885022,"size":1482779628,"categoryP":"video","categoryS":"movies","magnet":"?xt=urn:btih:ebdda75f0bd26a60a0ca3bbbd46d876cd75cc9fc&amp;dn=Muppets+Most+Wanted+2014+CAM-XViD+FiNGERBLaST+%5BP2PDL%5D&amp;tr=udp%3A%2F%2Ftracker.openbittorrent.com%3A80&amp;tr=udp%3A%2F%2Fopen.demonii.com%3A1337&amp;tr=udp%3A%2F%2Ftracker.coppersurfer.tk%3A6969&amp;tr=udp%3A%2F%2Fexodus.desync.com%3A6969","seeders":2,"leechers":0,"uploader":"TeX","files":2,"time":1396580340,"description":"[img]http://www.vistadelmar.org/wp-content/uploads/2013/11/Muppets-691x1024.jpg[/img]\nMuppets Most Wanted 2014 CAM-XViD FiNGERBLaST\n\n\n\nRELEASE DATE........: 4th april 2014\nDVD DATE............:N/A\nTHEATRE DATE........: 28Th March 2014 UK\nFOLDER SIZE...........: 1.37 GB \nSOURCE..............: MUPPETS.2.TS.LATINO Many Thanks\nAUDIO...............: A Good Friend Many Thanks\n\n\n\nFormat : AVI\nFormat/Info : Audio Video Interleave\nFile size : 1.36 GiB\nDuration : 1h 38mn\nOverall bit rate : 1 991 Kbps\nWriting library : VirtualDub build 30091/release\n\nVideo\nID : 0\nFormat : MPEG-4 Visual\nFormat profile : Advanced Simple@L5\nFormat settings, BVOP : 2\nFormat settings, QPel : No\nFormat settings, GMC : No warppoints\nFormat settings, Matrix : Default (H.263)\nMuxing mode : Packed bitstream\nCodec ID : XVID\nCodec ID/Hint : XviD\nDuration : 1h 38mn\nBit rate : 1 851 Kbps\nWidth : 640 pixels\nHeight : 304 pixels\nDisplay aspect ratio : 2.105\nFrame rate : 29.970 fps\nColor space : YUV\nChroma subsampling : 4:2:0\nBit depth : 8 bits\nScan type : Progressive\nCompression mode : Lossy\nBits/(Pixel*Frame) : 0.318\nStream size : 1.27 GiB (93%)\nWriting library : XviD 64\n\nAudio\nID : 1\nFormat : MPEG Audio\nFormat version : Version 1\nFormat profile : Layer 3\nMode : Joint stereo\nMode extension : MS Stereo\nCodec ID : 55\nCodec ID/Hint : MP3\nDuration : 1h 38mn\nBit rate mode : Constant\nBit rate : 128 Kbps\nChannel(s) : 2 channels\nSampling rate : 44.1 KHz\nCompression mode : Lossy\nDelay relative to video : 18ms\nStream size : 89.9 MiB (6%)\nAlignment : Split accross interleaves\nInterleave, duration : 33 ms (1.00 video frame)\nInterleave, preload duration : 500 ms\nWriting library : LAMEï¿½ï¿½)ï¿½di%\t[=;6!TY\n\n &lt;a href=&quot;\nhttp://www.imdb.com/title/tt2281587/&quot; rel=&quot;nofollow&quot; target=&quot;_NEW&quot;&gt;\nhttp://www.imdb.com/title/tt2281587/&lt;/a&gt;\n\n[img]http://i.imgur.com/DTcATYE.jpg[/img]","torrent":{"xt":"urn:btih:ebdda75f0bd26a60a0ca3bbbd46d876cd75cc9fc","amp;dn":"Muppets+Most+Wanted+2014+CAM-XViD+FiNGERBLaST+%5BP2PDL%5D","amp;tr":["udp%3A%2F%2Ftracker.openbittorrent.com%3A80","udp%3A%2F%2Fopen.demonii.com%3A1337","udp%3A%2F%2Ftracker.coppersurfer.tk%3A6969","udp%3A%2F%2Fexodus.desync.com%3A6969"],"infoHash":"ebdda75f0bd26a60a0ca3bbbd46d876cd75cc9fc","infoHashBuffer":{"type":"Buffer","data":[235,221,167,95,11,210,106,96,160,202,59,187,212,109,135,108,215,92,201,252]},"announce":[],"urlList":[]}}